<svg width="50" height="35" viewBox="0 0 50 35" fill="none" xmlns="http://www.w3.org/2000/svg">
<path d="M40.7815 13.9722C40.2282 13.8138 39.6517 14.1342 39.4935 14.6873C39.3353 15.2404 39.6555 15.8171 40.2085 15.9752C44.9631 17.335 47.9167 19.3073 47.9167 21.1224C47.9167 22.4507 46.301 23.9087 43.4842 25.1226C40.385 26.458 35.9885 27.4351 31.0997 27.8752L26.8327 27.8174C26.8278 27.8174 26.823 27.8173 26.8182 27.8173C26.2495 27.8173 25.7847 28.2745 25.777 28.8449C25.7692 29.4201 26.2293 29.8928 26.8044 29.9005L31.1251 29.9591C31.1299 29.9591 31.1346 29.9592 31.1393 29.9592C31.1702 29.9592 31.201 29.9578 31.2318 29.9551C36.3563 29.4982 41.0004 28.4615 44.3086 27.0359C49.0126 25.0087 50 22.7012 50 21.1224C50 18.2117 46.726 15.6723 40.7815 13.9722Z" fill="white"/>
<path d="M10.0916 12.7855C9.5164 12.7855 9.04995 13.2519 9.04995 13.8272C9.04995 14.4025 9.5164 14.8689 10.0916 14.8689H14.3751V19.1744H10.0916C9.5164 19.1744 9.04995 19.6407 9.04995 20.2161C9.04995 20.7914 9.5164 21.2577 10.0916 21.2577H15.4167C15.992 21.2577 16.4584 20.7914 16.4584 20.2161V7.43834C16.4584 6.86303 15.992 6.39667 15.4167 6.39667H10.0916C9.5164 6.39667 9.04995 6.86303 9.04995 7.43834C9.04995 8.01365 9.5164 8.48001 10.0916 8.48001H14.3751V12.7855H10.0916Z" fill="white"/>
<path d="M19.6749 21.2578H26.0639C26.6391 21.2578 27.1056 20.7915 27.1056 20.2162V13.8273C27.1056 13.252 26.6392 12.7856 26.0639 12.7856H20.7166V8.48001H25C25.5753 8.48001 26.0417 8.01365 26.0417 7.43834C26.0417 6.86303 25.5753 6.39667 25 6.39667H19.6749C19.0996 6.39667 18.6333 6.86303 18.6333 7.43834V20.2162C18.6333 20.7915 19.0996 21.2578 19.6749 21.2578ZM20.7166 14.8689H25.0222V19.1744H20.7166V14.8689Z" fill="white"/>
<path d="M30.3251 21.2578H36.7141C37.2893 21.2578 37.7558 20.7915 37.7558 20.2162V7.43834C37.7558 6.86303 37.2893 6.39667 36.7141 6.39667H30.3251C29.7499 6.39667 29.2835 6.86303 29.2835 7.43834V20.2162C29.2835 20.7915 29.7499 21.2578 30.3251 21.2578ZM31.3668 8.48001H35.6724V19.1745H31.3668V8.48001Z" fill="white"/>
<path d="M19.0476 23.8485C18.6761 23.4093 18.0188 23.3544 17.5796 23.726C17.1403 24.0975 17.0855 24.7547 17.457 25.194L19.7868 27.9481C14.8705 27.5732 10.4179 26.6722 7.14407 25.3804C3.92792 24.1113 2.08333 22.5594 2.08333 21.1224C2.08333 19.4539 4.55584 17.6557 8.69719 16.3124C9.24448 16.1349 9.54417 15.5474 9.36667 15.0001C9.18928 14.4529 8.60157 14.1532 8.05448 14.3306C5.64521 15.1121 3.73469 16.0418 2.37583 17.0938C0.799375 18.3146 0 19.6699 0 21.1224C0 23.5291 2.20604 25.6715 6.37938 27.3182C9.77146 28.6567 14.3197 29.5963 19.3196 30.0014L17.2421 32.3039C16.8567 32.731 16.8904 33.3897 17.3176 33.775C17.5168 33.9548 17.7664 34.0434 18.0151 34.0434C18.2996 34.0434 18.5831 33.9274 18.7888 33.6995L22.5791 29.499C22.7518 29.3076 22.8474 29.059 22.8474 28.8012V28.7216C22.8474 28.4752 22.7601 28.2369 22.6011 28.0489L19.0476 23.8485Z" fill="white"/>
<path d="M39.7307 6.34313H43.9889C44.5641 6.34313 45.0306 5.87677 45.0306 5.30146V1.04167C45.0306 0.466354 44.5641 0 43.9889 0H39.7307C39.1555 0 38.689 0.466354 38.689 1.04167V5.30146C38.689 5.87677 39.1555 6.34313 39.7307 6.34313ZM40.7723 2.08333H42.9472V4.25979H40.7723V2.08333Z" fill="white"/>
</svg>
