<svg width="24" height="24" viewBox="0 0 24 24" fill="none" xmlns="http://www.w3.org/2000/svg">
<path d="M15.6 12.2956C15.6 12.5343 15.5052 12.7632 15.3364 12.932C15.1676 13.1008 14.9387 13.1956 14.7 13.1956C14.4613 13.1956 14.2324 13.1008 14.0636 12.932C13.8948 12.7632 13.8 12.5343 13.8 12.2956C13.8 12.0569 13.8948 11.828 14.0636 11.6592C14.2324 11.4904 14.4613 11.3956 14.7 11.3956C14.9387 11.3956 15.1676 11.4904 15.3364 11.6592C15.5052 11.828 15.6 12.0569 15.6 12.2956ZM11.2764 1.51721C11.1459 1.49112 11.0112 1.49431 10.8821 1.52654C10.7529 1.55877 10.6325 1.61925 10.5296 1.70361C10.4266 1.78797 10.3437 1.89412 10.2867 2.0144C10.2297 2.13468 10.2001 2.26611 10.2 2.39921V22.1938C10.2001 22.3269 10.2297 22.4583 10.2867 22.5786C10.3437 22.6989 10.4266 22.805 10.5296 22.8894C10.6325 22.9738 10.7529 23.0342 10.8821 23.0665C11.0112 23.0987 11.1459 23.1019 11.2764 23.0758L20.2764 21.2758C20.4803 21.235 20.6639 21.1249 20.7958 20.9641C20.9277 20.8033 20.9999 20.6018 21 20.3938V4.19921C20.9999 3.99123 20.9277 3.78971 20.7958 3.62891C20.6639 3.46812 20.4803 3.35798 20.2764 3.31721L11.2764 1.51721ZM12 21.0958V3.49721L19.2 4.93721V19.6558L12 21.0958ZM8.4 21.2938V19.4938H4.8V5.09921H8.4V3.29921H3.9C3.66131 3.29921 3.43239 3.39403 3.2636 3.56282C3.09482 3.7316 3 3.96052 3 4.19921V20.3938C3 20.6325 3.09482 20.8614 3.2636 21.0302C3.43239 21.199 3.66131 21.2938 3.9 21.2938H8.4Z" fill="#313131"/>
</svg>
