<svg width="32" height="32" viewBox="0 0 32 32" fill="none" xmlns="http://www.w3.org/2000/svg">
<path d="M22.9724 9.02794L22.2313 8.91279C22.1945 9.14925 22.2728 9.38905 22.4421 9.55827C22.6113 9.72748 22.8511 9.80578 23.0875 9.76905L22.9724 9.02794ZM21.5905 12.8847L22.1505 12.3859C22.0132 12.2318 21.8185 12.141 21.6121 12.1351C21.4058 12.1291 21.2061 12.2084 21.0601 12.3544L21.5905 12.8847ZM12.8847 21.5905L12.3544 21.0601C12.2084 21.2061 12.1291 21.4058 12.1351 21.6121C12.141 21.8185 12.2318 22.0132 12.3859 22.1505L12.8847 21.5905ZM9.02794 22.9724L9.76905 23.0875C9.80578 22.8511 9.72748 22.6113 9.55827 22.4421C9.38905 22.2728 9.14925 22.1945 8.91279 22.2313L9.02794 22.9724ZM10.4099 19.1156L9.84979 19.6144C9.98708 19.7685 10.1818 19.8593 10.3882 19.8653C10.5945 19.8712 10.7942 19.7919 10.9402 19.6459L10.4099 19.1156ZM19.1156 10.4099L19.6459 10.9402C19.7919 10.7942 19.8712 10.5945 19.8653 10.3882C19.8593 10.1818 19.7685 9.98708 19.6144 9.84979L19.1156 10.4099ZM23.7135 9.14308C23.7377 8.98743 23.7502 8.82833 23.7502 8.66683H22.2502C22.2502 8.75096 22.2437 8.83306 22.2313 8.91279L23.7135 9.14308ZM23.3335 8.25016C23.172 8.25016 23.0129 8.26265 22.8572 8.28683L23.0875 9.76905C23.1673 9.75666 23.2494 9.75016 23.3335 9.75016V8.25016ZM26.4168 11.3335C26.4168 9.63062 25.0364 8.25016 23.3335 8.25016V9.75016C24.2079 9.75016 24.9168 10.459 24.9168 11.3335H26.4168ZM23.3335 14.4168C25.0364 14.4168 26.4168 13.0364 26.4168 11.3335H24.9168C24.9168 12.2079 24.2079 12.9168 23.3335 12.9168V14.4168ZM21.0304 13.3836C21.594 14.0164 22.4175 14.4168 23.3335 14.4168V12.9168C22.8632 12.9168 22.4416 12.7128 22.1505 12.3859L21.0304 13.3836ZM13.4151 22.1208L22.1208 13.4151L21.0601 12.3544L12.3544 21.0601L13.4151 22.1208ZM14.4168 23.3335C14.4168 22.4175 14.0164 21.594 13.3836 21.0304L12.3859 22.1505C12.7128 22.4416 12.9168 22.8632 12.9168 23.3335H14.4168ZM11.3335 26.4168C13.0364 26.4168 14.4168 25.0364 14.4168 23.3335H12.9168C12.9168 24.2079 12.2079 24.9168 11.3335 24.9168V26.4168ZM8.25016 23.3335C8.25016 25.0364 9.63062 26.4168 11.3335 26.4168V24.9168C10.459 24.9168 9.75016 24.2079 9.75016 23.3335H8.25016ZM8.28683 22.8572C8.26265 23.0129 8.25016 23.172 8.25016 23.3335H9.75016C9.75016 23.2494 9.75666 23.1673 9.76905 23.0875L8.28683 22.8572ZM8.66683 23.7502C8.82833 23.7502 8.98743 23.7377 9.14308 23.7135L8.91279 22.2313C8.83306 22.2437 8.75096 22.2502 8.66683 22.2502V23.7502ZM5.5835 20.6668C5.5835 22.3697 6.96395 23.7502 8.66683 23.7502V22.2502C7.79238 22.2502 7.0835 21.5413 7.0835 20.6668H5.5835ZM8.66683 17.5835C6.96395 17.5835 5.5835 18.964 5.5835 20.6668H7.0835C7.0835 19.7924 7.79238 19.0835 8.66683 19.0835V17.5835ZM10.9699 18.6168C10.4063 17.9839 9.58284 17.5835 8.66683 17.5835V19.0835C9.13709 19.0835 9.55871 19.2876 9.84979 19.6144L10.9699 18.6168ZM18.5853 9.87954L9.87954 18.5853L10.9402 19.6459L19.6459 10.9402L18.5853 9.87954ZM17.5835 8.66683C17.5835 9.58284 17.9839 10.4063 18.6168 10.9699L19.6144 9.84979C19.2876 9.55871 19.0835 9.13709 19.0835 8.66683H17.5835ZM20.6668 5.5835C18.964 5.5835 17.5835 6.96395 17.5835 8.66683H19.0835C19.0835 7.79238 19.7924 7.0835 20.6668 7.0835V5.5835ZM23.7502 8.66683C23.7502 6.96395 22.3697 5.5835 20.6668 5.5835V7.0835C21.5413 7.0835 22.2502 7.79238 22.2502 8.66683H23.7502Z" fill="#141414"/>
</svg>
