<svg width="32" height="32" viewBox="0 0 32 32" fill="none" xmlns="http://www.w3.org/2000/svg">
<path d="M16.6668 24.0002C16.6668 24.3684 16.3684 24.6668 16.0002 24.6668C15.632 24.6668 15.3335 24.3684 15.3335 24.0002C15.3335 23.632 15.632 23.3335 16.0002 23.3335C16.3684 23.3335 16.6668 23.632 16.6668 24.0002Z" stroke="black"/>
<path d="M12.6665 19.4171C13.6019 18.7356 14.7539 18.3335 15.9998 18.3335C17.2458 18.3335 18.3978 18.7356 19.3332 19.4171" stroke="black" stroke-width="1.5" stroke-linecap="round" stroke-linejoin="round"/>
<path d="M22.2837 14.9701C20.5024 13.7282 18.3364 13 16.0003 13C13.6641 13 11.4981 13.7282 9.7168 14.9701" stroke="black" stroke-width="1.5" stroke-linecap="round" stroke-linejoin="round"/>
<path d="M6.6665 10.5941C9.31212 8.74874 12.5296 7.6665 15.9998 7.6665C19.4701 7.6665 22.6876 8.74874 25.3332 10.5941" stroke="black" stroke-width="1.5" stroke-linecap="round" stroke-linejoin="round"/>
</svg>
